<?xml version="1.0" encoding="UTF-8"?><svg xmlns="http://www.w3.org/2000/svg" viewBox="0 0 954.27 582.56"><defs><style>.cls-1{fill-rule:evenodd;}</style></defs><g id="Socket"><path class="cls-1" d="M148.19,401.96h43.85v28.54h-43.85v-28.54Z"/><path class="cls-1" d="M283.22,401.96h43.85v28.54h-43.85v-28.54Z"/><path class="cls-1" d="M221.62,254.91h30.28v54.12h-30.28v-54.12Z"/><path class="cls-1" d="M626.73,401.96h43.85v28.54h-43.85v-28.54Z"/><path class="cls-1" d="M761.77,401.96h43.85v28.54h-43.85v-28.54Z"/><path class="cls-1" d="M700.17,254.91h30.28v54.12h-30.28v-54.12Z"/><path class="cls-1" d="M375.97,89.07c31.52,0,57.08,25.55,57.08,57.08s-25.55,57.08-57.08,57.08-57.08-25.55-57.08-57.08,25.55-57.08,57.08-57.08ZM375.97,99.96c25.51,0,46.19,20.68,46.19,46.19s-20.68,46.19-46.19,46.19-46.19-20.68-46.19-46.19,20.68-46.19,46.19-46.19Z"/><path class="cls-1" d="M577.84,89.07c31.52,0,57.08,25.55,57.08,57.08s-25.55,57.08-57.08,57.08-57.08-25.55-57.08-57.08,25.55-57.08,57.08-57.08ZM577.84,99.96c25.51,0,46.19,20.68,46.19,46.19s-20.68,46.19-46.19,46.19-46.19-20.68-46.19-46.19,20.68-46.19,46.19-46.19Z"/><path d="M882.42,40c17.59,0,31.85,14.26,31.85,31.85v438.87c0,17.59-14.26,31.85-31.85,31.85H71.85c-17.59,0-31.85-14.26-31.85-31.85V71.85c0-17.59,14.26-31.85,31.85-31.85h810.58M882.42,0H71.85C32.23,0,0,32.23,0,71.85v438.87c0,39.62,32.23,71.85,71.85,71.85h810.58c39.62,0,71.85-32.23,71.85-71.85V71.85c0-39.62-32.23-71.85-71.85-71.85h0Z"/></g><g id="Finger"><path d="M378.12,166.83c7.97,1.02,16.95,9.25,16.95,17.61v56.39c11.5-9.09,28.22-2.42,30.34,12.02,14.06-5.15,27.65,5.26,26.74,20.07,10.25-5.62,23.99-.51,27.42,10.7,2.04,6.67.9,19.3.22,26.52-2.38,25.4-11.47,52.73-26.39,73.47-1.62,2.26-7.26,9.93-9.6,10.46-3.64.83-6.27-1.88-5.94-5.48.18-2.06,5.1-6.88,6.63-8.99,17.06-23.41,29-61.84,26.4-90.88-.81-9.04-12.56-11.87-17.34-4.37-1.65,2.6-.97,4.34-1.7,6.77-1.44,4.73-8.72,4.26-9.48-1.08-.88-6.18.55-14.1-.02-20.48-.71-7.99-10.9-11.46-16.32-5.57-2.59,2.81-1.9,12.19-2.47,16.25-.92,6.57-9.49,5.56-9.74,0-.36-7.94,2.51-17.93,2.09-26.15-2.25-10.65-16.12-10.62-18.12.38-1.48,8.14-1.09,17.79-2.77,25.76-1.25,5.92-7.23,6.31-9.46,1.08l-.3-96.87c-1.68-10.39-16.49-10.6-18.69-.41l-.04,129.67c-.2,3.98-3.99,6.73-7.56,4.44-.77-.49-2.25-2.79-2.25-3.55v-34.55c-33.66,21.86-14.71,62.48,1.6,89.11,3.86,6.3,8.15,12.31,12.43,18.33,1.57,4.98-3.42,8.91-7.57,5.34-3.07-2.64-8.51-11.59-10.92-15.38-13.05-20.54-28.54-51.16-22.51-76.01,3.54-14.57,14.43-25.35,26.91-32.83l.13-83.67c.67-8.95,7.92-16.96,16.89-18.11,1.05-.14,3.41-.14,4.46,0Z"/></g></svg>