<?xml version="1.0" encoding="UTF-8"?><svg id="Layer_1" xmlns="http://www.w3.org/2000/svg" viewBox="0 0 954.27 582.56"><defs><style>.cls-1{fill:none;stroke:#000;stroke-linecap:round;stroke-linejoin:round;stroke-width:3px;}.cls-1,.cls-2{fill-rule:evenodd;}</style></defs><path class="cls-2" d="M145.63,401.96h43.85v28.54h-43.85v-28.54Z"/><path class="cls-2" d="M280.67,401.96h43.85v28.54h-43.85v-28.54Z"/><path class="cls-2" d="M219.06,254.91h30.28v54.12h-30.28v-54.12Z"/><path class="cls-2" d="M624.18,401.96h43.85v28.54h-43.85v-28.54Z"/><path class="cls-2" d="M759.22,401.96h43.85v28.54h-43.85v-28.54Z"/><path class="cls-2" d="M697.61,254.91h30.28v54.12h-30.28v-54.12Z"/><path d="M882.42,40c17.59,0,31.85,14.26,31.85,31.85v438.87c0,17.59-14.26,31.85-31.85,31.85H71.85c-17.59,0-31.85-14.26-31.85-31.85V71.85c0-17.59,14.26-31.85,31.85-31.85h810.58M882.42,0H71.85C32.23,0,0,32.23,0,71.85v438.87c0,39.62,32.23,71.85,71.85,71.85h810.58c39.62,0,71.85-32.23,71.85-71.85V71.85c0-39.62-32.23-71.85-71.85-71.85h0Z"/><path d="M446.68,118.83c6.15,0,11.14,4.99,11.14,11.14v118.16c0,6.15-4.99,11.14-11.14,11.14h-43.33c-6.15,0-11.14-4.99-11.14-11.14v-118.16c0-6.15,4.99-11.14,11.14-11.14h43.33M446.68,108.83h-43.33c-11.66,0-21.14,9.48-21.14,21.14v118.16c0,11.66,9.48,21.14,21.14,21.14h43.33c11.66,0,21.14-9.48,21.14-21.14v-118.16c0-11.66-9.48-21.14-21.14-21.14h0Z"/><path class="cls-1" d="M433.78,213.05c2.89,2.81,4.69,6.74,4.69,11.09,0,8.53-6.91,15.44-15.44,15.44s-15.44-6.91-15.44-15.44c0-4.47,1.9-8.5,4.94-11.32"/><path class="cls-1" d="M423.19,206.54h-.17l.17,14.62h-.17"/><path d="M557.62,118.83c6.15,0,11.14,4.99,11.14,11.14v118.16c0,6.15-4.99,11.14-11.14,11.14h-43.33c-6.15,0-11.14-4.99-11.14-11.14v-118.16c0-6.15,4.99-11.14,11.14-11.14h43.33M557.62,108.83h-43.33c-11.66,0-21.14,9.48-21.14,21.14v118.16c0,11.66,9.48,21.14,21.14,21.14h43.33c11.66,0,21.14-9.48,21.14-21.14v-118.16c0-11.66-9.48-21.14-21.14-21.14h0Z"/><path class="cls-1" d="M544.72,213.05c2.89,2.81,4.69,6.74,4.69,11.09,0,8.53-6.91,15.44-15.44,15.44s-15.44-6.91-15.44-15.44c0-4.47,1.9-8.5,4.94-11.32"/><path class="cls-1" d="M534.12,206.54h-.17l.17,14.62h-.17"/></svg>