<?xml version="1.0" encoding="UTF-8"?><svg id="Layer_1" xmlns="http://www.w3.org/2000/svg" viewBox="0 0 954.27 954.27"><defs><style>.outline{fill:none;stroke:#00796B;stroke-linecap:round;stroke-linejoin:round;stroke-width:3px;}.hole{fill:#fff;fill-rule:evenodd;}</style></defs><g transform="translate(0, 185.86)"><path class="hole" d="M148.19,401.96h43.85v28.54h-43.85v-28.54Z"/><path class="hole" d="M283.22,401.96h43.85v28.54h-43.85v-28.54Z"/><path class="hole" d="M221.62,254.91h30.28v54.12h-30.28v-54.12Z"/><path class="hole" d="M626.73,401.96h43.85v28.54h-43.85v-28.54Z"/><path class="hole" d="M761.77,401.96h43.85v28.54h-43.85v-28.54Z"/><path class="hole" d="M700.17,254.91h30.28v54.12h-30.28v-54.12Z"/><path d="M882.42,40c17.59,0,31.85,14.26,31.85,31.85v438.87c0,17.59-14.26,31.85-31.85,31.85H71.85c-17.59,0-31.85-14.26-31.85-31.85V71.85c0-17.59,14.26-31.85,31.85-31.85h810.58M882.42,0H71.85C32.23,0,0,32.23,0,71.85v438.87c0,39.62,32.23,71.85,71.85,71.85h810.58c39.62,0,71.85-32.23,71.85-71.85V71.85c0-39.62-32.23-71.85-71.85-71.85h0Z" fill="#00796B"/><path d="M443.1,118.83c6.15,0,11.14,4.99,11.14,11.14v118.16c0,6.15-4.99,11.14-11.14,11.14h-43.33c-6.15,0-11.14-4.99-11.14-11.14v-118.16c0-6.15,4.99-11.14,11.14-11.14h43.33M443.1,108.83h-43.33c-11.66,0-21.14,9.48-21.14,21.14v118.16c0,11.66,9.48,21.14,21.14,21.14h43.33c11.66,0,21.14-9.48,21.14-21.14v-118.16c0-11.66-9.48-21.14-21.14-21.14h0Z"/><path class="outline" d="M430.21,213.05c2.89,2.81,4.69,6.74,4.69,11.09,0,8.53-6.91,15.44-15.44,15.44s-15.44-6.91-15.44-15.44c0-4.47,1.9-8.5,4.94-11.32"/><path class="outline" d="M419.61,206.54h-.17l.17,14.62h-.17"/><path d="M554.04,118.83c6.15,0,11.14,4.99,11.14,11.14v118.16c0,6.15-4.99,11.14-11.14,11.14h-43.33c-6.15,0-11.14-4.99-11.14-11.14v-118.16c0-6.15,4.99-11.14,11.14-11.14h43.33M554.04,108.83h-43.33c-11.66,0-21.14,9.48-21.14,21.14v118.16c0,11.66,9.48,21.14,21.14,21.14h43.33c11.66,0,21.14-9.48,21.14-21.14v-118.16c0-11.66-9.48-21.14-21.14-21.14h0Z"/><path class="outline" d="M541.14,213.05c2.89,2.81,4.69,6.74,4.69,11.09,0,8.53-6.91,15.44-15.44,15.44s-15.44-6.91-15.44-15.44c0-4.47,1.9-8.5,4.94-11.32"/><path class="outline" d="M530.55,206.54h-.17l.17,14.62h-.17"/></g></svg>
