<?xml version="1.0" encoding="UTF-8"?><svg id="Layer_1" xmlns="http://www.w3.org/2000/svg" viewBox="0 0 954.27 582.56"><defs><style>.cls-1{fill-rule:evenodd;}</style></defs><path class="cls-1" d="M148.19,401.96h43.85v28.54h-43.85v-28.54Z"/><path class="cls-1" d="M283.22,401.96h43.85v28.54h-43.85v-28.54Z"/><path class="cls-1" d="M221.62,254.91h30.28v54.12h-30.28v-54.12Z"/><path class="cls-1" d="M626.73,401.96h43.85v28.54h-43.85v-28.54Z"/><path class="cls-1" d="M761.77,401.96h43.85v28.54h-43.85v-28.54Z"/><path class="cls-1" d="M700.17,254.91h30.28v54.12h-30.28v-54.12Z"/><path class="cls-1" d="M375.97,89.07c31.52,0,57.08,25.55,57.08,57.08s-25.55,57.08-57.08,57.08-57.08-25.55-57.08-57.08,25.55-57.08,57.08-57.08ZM375.97,99.96c25.51,0,46.19,20.68,46.19,46.19s-20.68,46.19-46.19,46.19-46.19-20.68-46.19-46.19,20.68-46.19,46.19-46.19Z"/><path class="cls-1" d="M577.84,89.07c31.52,0,57.08,25.55,57.08,57.08s-25.55,57.08-57.08,57.08-57.08-25.55-57.08-57.08,25.55-57.08,57.08-57.08ZM577.84,99.96c25.51,0,46.19,20.68,46.19,46.19s-20.68,46.19-46.19,46.19-46.19-20.68-46.19-46.19,20.68-46.19,46.19-46.19Z"/><path d="M882.42,40c17.59,0,31.85,14.26,31.85,31.85v438.87c0,17.59-14.26,31.85-31.85,31.85H71.85c-17.59,0-31.85-14.26-31.85-31.85V71.85c0-17.59,14.26-31.85,31.85-31.85h810.58M882.42,0H71.85C32.23,0,0,32.23,0,71.85v438.87c0,39.62,32.23,71.85,71.85,71.85h810.58c39.62,0,71.85-32.23,71.85-71.85V71.85c0-39.62-32.23-71.85-71.85-71.85h0Z"/></svg>